HIERARCHY
ROOT Hips
{
	OFFSET -0.001795 -0.223333 0.028219
	CHANNELS 6 Xposition Yposition Zposition Zrotation Yrotation Xrotation 
	JOINT LeftUpLeg
	{
		OFFSET 0.069520 -0.091406 -0.006815
		CHANNELS 3 Zrotation Yrotation Xrotation
		JOINT LeftLeg
		{
			OFFSET 0.034277 -0.375199 -0.004496
			CHANNELS 3 Zrotation Yrotation Xrotation
			JOINT LeftFoot
			{
				OFFSET -0.013596 -0.397961 -0.043693
				CHANNELS 3 Zrotation Yrotation Xrotation
				JOINT LeftToe
				{
					OFFSET 0.026358 -0.055791 0.119288
					CHANNELS 3 Zrotation Yrotation Xrotation
					End Site
					{
						OFFSET 0.000000 0.000000 0.000000
					}
				}
			}
		}
	}
	JOINT RightUpLeg
	{
		OFFSET -0.067670 -0.090522 -0.004320
		CHANNELS 3 Zrotation Yrotation Xrotation
		JOINT RightLeg
		{
			OFFSET -0.038290 -0.382569 -0.008850
			CHANNELS 3 Zrotation Yrotation Xrotation
			JOINT RightFoot
			{
				OFFSET 0.015774 -0.398415 -0.042312
				CHANNELS 3 Zrotation Yrotation Xrotation
				JOINT RightToe
				{
					OFFSET -0.025372 -0.048144 0.123348
					CHANNELS 3 Zrotation Yrotation Xrotation
					End Site
					{
						OFFSET 0.000000 0.000000 0.000000
					}
				}
			}
		}
	}
	JOINT Spine
	{
		OFFSET -0.002533 0.108963 -0.026696
		CHANNELS 3 Zrotation Yrotation Xrotation
		JOINT Spine1
		{
			OFFSET 0.005487 0.135180 0.001092
			CHANNELS 3 Zrotation Yrotation Xrotation
			JOINT Spine2
			{
				OFFSET 0.001457 0.052922 0.025425
				CHANNELS 3 Zrotation Yrotation Xrotation
				JOINT Neck
				{
					OFFSET -0.002778 0.213870 -0.042857
					CHANNELS 3 Zrotation Yrotation Xrotation
					JOINT Head
					{
						OFFSET 0.005152 0.064970 0.051349
						CHANNELS 3 Zrotation Yrotation Xrotation
						End Site
						{
							OFFSET 0.000000 0.000000 0.000000
						}
					}
				}
				JOINT LeftShoulder
				{
					OFFSET 0.078845 0.121749 -0.034090
					CHANNELS 3 Zrotation Yrotation Xrotation
					JOINT LeftArm
					{
						OFFSET 0.090977 0.030469 -0.008868
						CHANNELS 3 Zrotation Yrotation Xrotation
						JOINT LeftForeArm
						{
							OFFSET 0.259612 -0.012772 -0.027456
							CHANNELS 3 Zrotation Yrotation Xrotation
							JOINT LeftHand
							{
								OFFSET 0.249234 0.008986 -0.001171
								CHANNELS 3 Zrotation Yrotation Xrotation
								End Site
								{
									OFFSET 0.000000 0.000000 0.000000
								}
							}
						}
					}
				}
				JOINT RightShoulder
				{
					OFFSET -0.081759 0.118833 -0.038615
					CHANNELS 3 Zrotation Yrotation Xrotation
					JOINT RightArm
					{
						OFFSET -0.096012 0.032551 -0.009143
						CHANNELS 3 Zrotation Yrotation Xrotation
						JOINT RightForeArm
						{
							OFFSET -0.253742 -0.013329 -0.021401
							CHANNELS 3 Zrotation Yrotation Xrotation
							JOINT RightHand
							{
								OFFSET -0.255298 0.007772 -0.005559
								CHANNELS 3 Zrotation Yrotation Xrotation
								End Site
								{
									OFFSET 0.000000 0.000000 0.000000
								}
							}
						}
					}
				}
			}
		}
	}
}
MOTION
Frames: 18
Frame Time: 0.050000
0.000000 0.944505 0.000000 -2.028958 0.390607 8.159929 5.012430 -0.391593 -4.752199 -1.038314 0.274939 -6.678485 0.025483 4.220469 10.621516 0.000000 0.000000 0.000000 -3.103599 0.648706 -6.990606 0.314285 -0.111412 -2.143491 -11.788810 -24.909276 24.853092 0.000000 0.000000 0.000000 1.075243 0.168177 -4.124137 0.358635 -0.008618 -5.043109 0.426818 -0.008570 5.352810 -0.037407 0.864672 -11.534877 0.000000 0.000000 0.000000 -16.311248 4.074169 -3.627783 -57.435345 -7.014590 -3.481650 -10.486363 -16.211890 2.088329 0.000000 0.000000 0.000000 13.900719 -3.612402 -2.992959 61.684687 5.180389 -3.291791 4.959586 13.667966 0.942385 0.000000 0.000000 0.000000 
0.000265 0.943609 0.000133 -2.356345 -0.888496 8.640988 4.524616 -0.370005 -4.341728 0.241441 0.263463 -7.903282 0.666824 5.194807 10.735544 0.000000 0.000000 0.000000 -3.209817 0.699111 -7.551081 0.884694 -0.165795 -2.415453 -11.071355 -24.157038 24.206067 0.000000 0.000000 0.000000 1.696546 0.187933 -4.449522 -0.617046 0.377860 -4.931366 1.366611 0.356487 4.907616 -1.350691 1.679310 -11.577478 0.000000 0.000000 0.000000 -16.994465 5.451153 -4.335444 -57.138995 -6.637082 -3.588042 -11.811034 -16.740882 2.368772 0.000000 0.000000 0.000000 13.008058 -4.077572 -3.193765 62.147101 4.407819 -3.697283 6.296185 15.111454 1.191274 0.000000 0.000000 0.000000 
0.000505 0.943668 0.000017 -2.048377 -0.595830 8.514631 4.323226 -0.366789 -4.244465 0.006809 0.273343 -7.956740 0.468976 4.923324 10.825726 0.000000 0.000000 0.000000 -3.489761 0.692158 -7.578666 0.800151 -0.147690 -2.050260 -11.287614 -24.408980 24.231830 0.000000 0.000000 0.000000 1.476387 0.166101 -4.068204 -0.603272 0.402034 -6.316179 0.925960 0.018402 5.394883 -1.710219 1.888109 -11.104630 0.000000 0.000000 0.000000 -16.163849 4.799472 -3.848258 -57.675336 -6.650014 -3.660553 -11.082267 -16.262492 2.199727 0.000000 0.000000 0.000000 14.395475 -3.184433 -2.966885 60.939461 4.129607 -3.819280 5.854874 14.760270 1.111738 0.000000 0.000000 0.000000 
0.000678 0.943453 -0.000105 -2.356461 -1.180287 8.943457 4.358458 -0.387989 -4.653283 0.451879 0.255253 -7.875765 0.831434 5.441366 10.741029 0.000000 0.000000 0.000000 -3.545729 0.766057 -8.523328 1.363531 -0.174041 -1.380528 -10.995148 -24.113719 23.978469 0.000000 0.000000 0.000000 1.507563 0.177513 -4.270912 -1.178642 0.621883 -6.111141 1.995849 -0.467259 4.482937 -2.472280 2.283367 -10.504483 0.000000 0.000000 0.000000 -15.598969 5.691051 -4.042986 -58.929154 -6.902143 -3.471876 -10.749645 -15.684130 2.096308 0.000000 0.000000 0.000000 13.579519 -3.145594 -3.031608 60.903217 4.108571 -3.767885 6.910497 14.960312 1.214692 0.000000 0.000000 0.000000 
0.000770 0.943724 -0.000278 -2.217170 -0.939253 8.783167 4.064923 -0.382585 -4.503262 0.721482 0.246795 -7.937263 0.674229 5.232788 10.834801 0.000000 0.000000 0.000000 -3.551514 0.742360 -8.241502 1.138483 -0.159386 -1.526722 -11.116055 -24.234308 24.137564 0.000000 0.000000 0.000000 1.389777 0.180027 -4.313082 -1.013512 0.558471 -6.110277 1.703203 -0.616449 4.480337 -2.735608 2.466587 -10.627289 0.000000 0.000000 0.000000 -15.243560 5.287644 -3.800873 -59.077372 -7.581861 -3.138744 -10.707669 -14.981458 1.987773 0.000000 0.000000 0.000000 13.584070 -3.290433 -3.090950 60.978333 4.489034 -3.579307 7.097206 14.563988 1.200301 0.000000 0.000000 0.000000 
0.000844 0.943927 -0.000420 -2.272176 -1.373052 9.025365 3.951121 -0.394703 -4.720515 0.961771 0.237044 -7.901275 0.889069 5.577472 10.947962 0.000000 0.000000 0.000000 -3.506602 0.768826 -8.522607 1.078928 -0.156354 -1.633474 -10.854669 -23.940444 24.085544 0.000000 0.000000 0.000000 1.180694 0.198698 -4.644032 -1.023914 0.558809 -6.261371 2.104155 -0.575587 4.608060 -2.792391 2.468043 -9.980718 0.000000 0.000000 0.000000 -15.309025 5.732102 -3.980002 -59.316788 -7.888354 -2.991780 -10.537229 -14.778740 1.946621 0.000000 0.000000 0.000000 13.283474 -3.005746 -2.954888 60.957730 4.839234 -3.421035 7.128910 14.821027 1.221306 0.000000 0.000000 0.000000 
0.000883 0.943929 -0.000539 -2.265044 -1.566799 9.042665 3.824671 -0.393450 -4.693532 1.136742 0.232202 -7.935674 0.980210 5.717196 10.979063 0.000000 0.000000 0.000000 -3.370715 0.773479 -8.521445 0.789016 -0.134756 -1.732112 -10.736899 -23.810786 24.032675 0.000000 0.000000 0.000000 1.076958 0.202041 -4.690730 -0.974114 0.534087 -6.151516 2.189906 -0.744768 4.340877 -2.756549 2.429915 -10.323463 0.000000 0.000000 0.000000 -15.364887 5.877369 -4.016184 -59.270865 -7.776030 -3.011982 -10.643535 -14.638133 1.945146 0.000000 0.000000 0.000000 13.334323 -2.771432 -2.904983 60.665356 4.935544 -3.337090 7.380762 15.054765 1.263022 0.000000 0.000000 0.000000 
0.000962 0.943628 -0.000622 -2.332288 -1.872055 9.190955 3.693436 -0.397648 -4.752090 1.447677 0.225140 -8.026586 1.152921 5.963987 10.948336 0.000000 0.000000 0.000000 -3.105570 0.792154 -8.641137 0.385156 -0.106577 -1.891108 -10.561528 -23.623775 23.893408 0.000000 0.000000 0.000000 0.995221 0.213138 -4.886102 -0.916079 0.504128 -5.991527 2.305693 -0.540664 3.918824 -2.715851 2.393785 -10.019371 0.000000 0.000000 0.000000 -15.178832 6.043274 -4.084835 -59.155021 -7.647116 -3.025488 -10.853474 -14.596178 1.962939 0.000000 0.000000 0.000000 13.445106 -2.822191 -2.953163 60.512366 4.981608 -3.255576 7.355213 15.089230 1.260631 0.000000 0.000000 0.000000 
0.001054 0.943500 -0.000655 -2.348808 -1.947461 9.097334 3.649720 -0.385854 -4.559992 1.530120 0.228915 -8.163779 1.184101 6.006277 10.939169 0.000000 0.000000 0.000000 -3.006532 0.791720 -8.606425 0.222693 -0.089506 -1.789131 -10.522136 -23.584345 23.809902 0.000000 0.000000 0.000000 0.940669 0.207591 -4.771624 -0.868101 0.485004 -6.086978 2.490278 -0.566107 3.743059 -2.847698 2.471952 -9.958223 0.000000 0.000000 0.000000 -15.125499 6.157184 -4.120043 -59.120943 -7.606942 -3.022847 -11.066897 -14.411787 1.964702 0.000000 0.000000 0.000000 13.532186 -2.843038 -2.997969 60.220797 4.995429 -3.216178 7.206806 15.097779 1.240927 0.000000 0.000000 0.000000 
0.001154 0.943445 -0.000701 -2.325923 -2.093916 8.995889 3.576568 -0.378383 -4.447847 1.575795 0.225392 -8.126514 1.255293 6.102760 10.909730 0.000000 0.000000 0.000000 -2.970163 0.783976 -8.492018 0.084199 -0.079954 -1.836818 -10.433296 -23.483387 23.724557 0.000000 0.000000 0.000000 0.959060 0.211096 -4.826600 -0.888048 0.489103 -5.896186 2.567198 -0.391571 3.556889 -3.139693 2.667334 -9.801716 0.000000 0.000000 0.000000 -14.997556 6.148052 -4.113388 -59.033142 -7.526874 -3.043052 -11.412766 -14.548555 2.026038 0.000000 0.000000 0.000000 13.665860 -2.818883 -2.999581 59.875092 4.929622 -3.203799 6.963600 15.178463 1.220730 0.000000 0.000000 0.000000 
0.001222 0.943196 -0.000782 -2.299831 -2.172656 8.929770 3.581569 -0.368004 -4.287798 1.491441 0.235785 -8.269127 1.287949 6.142597 10.883822 0.000000 0.000000 0.000000 -3.004945 0.782770 -8.487144 0.076423 -0.075728 -1.744563 -10.407674 -23.464138 23.594930 0.000000 0.000000 0.000000 0.912508 0.213051 -4.856175 -0.864780 0.477881 -5.835011 2.629364 -0.342760 3.542420 -3.248910 2.737826 -9.650625 0.000000 0.000000 0.000000 -15.020621 6.264242 -4.174087 -58.903550 -7.323334 -3.139929 -11.524952 -14.862555 2.087266 0.000000 0.000000 0.000000 13.712302 -3.066617 -3.124816 59.709981 4.969970 -3.174117 6.900592 14.977348 1.195326 0.000000 0.000000 0.000000 
0.001189 0.942890 -0.000916 -2.331169 -2.245495 8.813717 3.671206 -0.351502 -4.037617 1.380934 0.250138 -8.476516 1.319564 6.178688 10.845140 0.000000 0.000000 0.000000 -2.949159 0.772123 -8.336137 0.036447 -0.075277 -1.816865 -10.369149 -23.424398 23.469887 0.000000 0.000000 0.000000 0.866482 0.211413 -4.816434 -0.834607 0.463339 -5.723259 2.846142 -0.440807 3.394432 -3.406646 2.833231 -9.871073 0.000000 0.000000 0.000000 -14.932765 6.668446 -4.334943 -58.886119 -6.954142 -3.300584 -11.842901 -15.097234 2.168823 0.000000 0.000000 0.000000 13.666217 -3.180517 -3.204326 59.480000 4.802440 -3.237879 6.564245 14.873981 1.143856 0.000000 0.000000 0.000000 
0.001043 0.942517 -0.001072 -2.348074 -2.292165 8.809080 3.702694 -0.345304 -3.937899 1.367593 0.259047 -8.644551 1.349339 6.210567 10.795400 0.000000 0.000000 0.000000 -2.819842 0.774228 -8.324263 -0.151794 -0.061419 -1.852704 -10.356304 -23.419880 23.346239 0.000000 0.000000 0.000000 0.834056 0.214757 -4.878502 -0.759155 0.430625 -5.626537 2.955492 -0.401925 3.267846 -3.360314 2.801105 -9.899062 0.000000 0.000000 0.000000 -15.049180 6.768411 -4.402838 -58.604823 -6.616773 -3.445931 -11.800735 -15.309889 2.194717 0.000000 0.000000 0.000000 13.745846 -3.393074 -3.321357 59.223974 4.596070 -3.312932 6.374122 14.823851 1.117743 0.000000 0.000000 0.000000 
0.000838 0.942215 -0.001264 -2.358314 -2.449920 8.677732 3.715365 -0.333412 -3.768809 1.360746 0.260124 -8.657405 1.437155 6.319352 10.706555 0.000000 0.000000 0.000000 -2.656791 0.753267 -8.017629 -0.414129 -0.055234 -2.201540 -10.251452 -23.297955 23.217913 0.000000 0.000000 0.000000 0.797992 0.211821 -4.805459 -0.698079 0.402513 -5.542671 3.104166 -0.337202 3.143151 -3.131348 2.643407 -9.851146 0.000000 0.000000 0.000000 -15.080139 6.950370 -4.491937 -58.338871 -6.363283 -3.546250 -11.713246 -15.231006 2.171485 0.000000 0.000000 0.000000 13.779307 -3.369338 -3.326171 58.972759 4.364233 -3.401779 5.928742 14.766574 1.062708 0.000000 0.000000 0.000000 
0.000658 0.941921 -0.001460 -2.376065 -2.412645 8.645850 3.686245 -0.330267 -3.714148 1.475764 0.259468 -8.722890 1.432533 6.297603 10.635359 0.000000 0.000000 0.000000 -2.561282 0.740088 -7.835243 -0.520698 -0.058819 -2.473969 -10.266988 -23.314630 23.177742 0.000000 0.000000 0.000000 0.771745 0.214351 -4.857106 -0.727851 0.416064 -5.606236 3.178915 -0.338221 3.275154 -2.907802 2.502025 -10.170028 0.000000 0.000000 0.000000 -15.045595 7.002186 -4.510534 -58.115879 -6.137665 -3.659977 -11.624086 -15.109935 2.142099 0.000000 0.000000 0.000000 13.709624 -3.680921 -3.457748 58.952640 4.227204 -3.486369 5.743401 14.502916 1.022711 0.000000 0.000000 0.000000 
0.000580 0.941776 -0.001646 -2.397353 -2.324306 8.612199 3.640648 -0.326958 -3.653242 1.623080 0.259075 -8.812482 1.393258 6.234719 10.610977 0.000000 0.000000 0.000000 -2.373870 0.727990 -7.654399 -0.787883 -0.050057 -2.725911 -10.299532 -23.346014 23.218097 0.000000 0.000000 0.000000 0.761935 0.218244 -4.938572 -0.728855 0.418027 -5.631012 3.266461 -0.517675 3.394856 -2.695305 2.356547 -10.398706 0.000000 0.000000 0.000000 -15.294405 7.173190 -4.605160 -57.758613 -5.720346 -3.857573 -11.574708 -15.128224 2.143248 0.000000 0.000000 0.000000 13.792035 -3.495888 -3.406415 58.816012 3.925283 -3.642440 5.599253 14.342655 0.992671 0.000000 0.000000 0.000000 
0.000566 0.941614 -0.001819 -2.450769 -2.187715 8.535278 3.748518 -0.320688 -3.551033 1.559038 0.265392 -8.902056 1.332620 6.132346 10.555407 0.000000 0.000000 0.000000 -2.228301 0.704702 -7.354273 -0.915009 -0.057711 -3.093050 -10.349088 -23.390696 23.289254 0.000000 0.000000 0.000000 0.739551 0.216213 -4.907412 -0.634102 0.379871 -5.547553 3.348863 -0.548882 3.279801 -2.547009 2.267630 -10.726054 0.000000 0.000000 0.000000 -15.413068 7.226884 -4.655733 -57.635456 -5.309806 -4.044265 -11.593969 -15.023300 2.128719 0.000000 0.000000 0.000000 13.804772 -3.539323 -3.426477 58.635570 3.622749 -3.767691 5.664974 14.075053 0.978677 0.000000 0.000000 0.000000 
0.000621 0.941552 -0.002031 -2.542188 -2.203932 8.541879 3.767559 -0.314386 -3.442018 1.696262 0.272640 -9.119846 1.335913 6.146846 10.597195 0.000000 0.000000 0.000000 -2.149137 0.699514 -7.276698 -0.883891 -0.068254 -3.270848 -10.320176 -23.351052 23.317849 0.000000 0.000000 0.000000 0.673269 0.213458 -4.856696 -0.536331 0.340763 -5.616526 3.579195 -0.595983 3.252044 -2.347536 2.141104 -11.213167 0.000000 0.000000 0.000000 -15.429231 7.475510 -4.765548 -57.646894 -4.942783 -4.215430 -11.846931 -14.634994 2.106095 0.000000 0.000000 0.000000 13.721132 -3.451633 -3.388988 58.384844 3.636703 -3.741682 5.867377 13.519373 0.953065 0.000000 0.000000 0.000000 
